<?xml version="1.0" encoding="UTF-8" ?>
<!DOCTYPE svg PUBLIC "-//W3C//DTD SVG 1.1//EN" "http://www.w3.org/Graphics/SVG/1.1/DTD/svg11.dtd">
<svg width="400pt" height="200pt" viewBox="0 0 400 200" version="1.1" xmlns="http://www.w3.org/2000/svg">
<path fill="#ffffff" d=" M 0.00 0.00 L 400.00 0.00 L 400.00 200.00 L 0.00 200.00 L 0.00 0.00 Z" />
<path fill="#196157" d=" M 71.09 43.72 C 73.87 43.85 76.07 41.99 78.38 40.76 C 79.17 41.06 80.90 42.33 79.38 43.03 C 75.10 47.87 67.99 45.75 62.46 44.94 C 62.43 52.29 62.66 59.67 62.01 67.01 C 64.02 66.83 66.03 66.65 68.05 66.73 C 66.28 67.97 64.13 68.30 62.06 68.74 C 60.92 76.75 60.79 86.43 53.98 91.98 C 49.30 95.38 43.78 89.92 44.49 84.98 C 44.01 82.23 46.53 80.58 49.02 81.23 C 48.25 81.73 46.71 82.73 45.94 83.23 C 45.94 86.20 46.51 89.56 49.20 91.32 C 51.54 91.80 53.08 89.83 53.83 87.89 C 56.38 81.71 56.53 74.91 57.06 68.35 C 54.42 68.56 51.79 68.88 49.15 69.10 C 51.13 66.79 54.36 67.16 57.08 66.84 C 57.59 58.97 57.14 51.08 56.25 43.26 C 52.51 42.92 48.06 42.20 45.06 45.05 C 43.31 46.71 42.38 50.37 45.01 51.66 C 47.88 52.25 47.87 48.78 49.03 47.10 C 50.57 49.46 48.87 52.76 46.04 52.72 C 42.91 52.90 41.16 49.02 42.48 46.47 C 43.83 43.10 47.69 41.79 51.04 41.58 C 57.81 41.22 64.35 43.59 71.09 43.72 Z" />
<path fill="#196157" d=" M 161.03 43.23 C 164.89 40.82 170.72 41.97 172.90 46.12 C 176.21 52.08 175.16 59.16 175.14 65.69 C 177.01 59.66 179.15 53.33 183.66 48.72 C 185.76 46.37 189.76 46.98 191.35 49.59 C 194.19 54.04 193.28 59.63 193.48 64.64 C 195.20 59.44 196.67 53.78 200.65 49.78 C 202.51 47.67 206.35 47.60 207.74 50.26 C 210.32 55.07 209.94 60.75 210.02 66.03 C 210.17 74.89 208.34 83.80 209.84 92.61 C 215.51 92.16 217.80 86.21 219.50 81.63 C 220.24 77.21 219.27 72.67 218.86 68.25 C 220.21 68.09 221.56 67.93 222.91 67.77 C 224.25 75.32 222.95 83.12 224.89 90.57 C 226.63 89.52 228.61 88.53 229.49 86.57 C 232.27 81.18 233.22 75.09 233.98 69.15 C 234.87 69.08 236.66 68.94 237.55 68.88 C 237.18 75.63 236.54 82.37 236.23 89.13 C 238.87 86.79 241.53 84.35 243.32 81.27 C 244.47 79.48 245.05 77.16 247.21 76.29 C 245.53 82.46 240.94 87.18 236.05 91.03 C 235.43 98.27 236.06 106.03 232.77 112.73 C 230.61 116.97 223.85 114.75 223.10 110.54 C 221.24 102.94 226.96 96.36 232.47 91.95 C 232.52 89.29 232.63 86.63 232.83 83.98 C 231.16 87.74 228.78 92.00 224.01 91.77 C 221.98 89.57 220.83 86.81 220.32 83.89 C 218.90 87.09 217.28 90.36 214.48 92.61 C 212.40 94.44 208.59 94.11 207.26 91.52 C 205.20 88.07 205.29 83.88 205.24 80.00 C 205.09 71.33 206.16 62.68 205.64 54.02 C 205.44 52.58 205.26 50.11 203.15 50.80 C 200.79 52.25 199.21 54.61 198.17 57.12 C 194.82 64.74 193.43 73.01 192.02 81.16 C 190.78 80.64 189.56 80.12 188.33 79.59 C 188.91 71.78 190.26 63.95 189.46 56.11 C 189.13 53.86 188.89 51.33 187.14 49.68 C 184.82 49.38 183.48 51.72 182.36 53.34 C 178.85 59.25 176.29 65.72 174.63 72.39 C 173.38 79.26 173.04 86.26 172.11 93.18 C 170.48 93.27 168.85 93.32 167.23 93.32 C 169.17 79.58 172.28 65.86 171.71 51.90 C 171.59 49.40 171.24 46.63 169.41 44.77 C 166.46 42.78 162.58 43.81 160.05 45.99 C 155.25 49.92 151.92 56.37 153.23 62.67 C 153.82 65.23 155.96 68.08 158.91 67.55 C 163.56 67.03 166.34 61.99 165.09 57.65 C 162.58 56.72 161.83 59.74 160.32 61.03 C 160.45 59.54 160.01 57.44 161.57 56.55 C 163.83 54.93 167.22 57.36 166.76 60.05 C 167.05 65.66 160.87 70.05 155.66 68.11 C 152.68 66.70 151.44 63.11 151.49 60.00 C 151.47 53.29 155.26 46.64 161.03 43.23 Z" />
<path fill="#196157" d=" M 276.84 43.84 C 279.25 42.13 282.58 41.26 285.31 42.78 C 287.65 43.89 288.57 46.51 289.06 48.87 C 291.80 63.03 287.91 77.34 288.47 91.55 C 290.43 90.58 292.36 89.39 293.48 87.44 C 298.96 78.93 301.16 68.87 303.05 59.07 C 303.01 57.18 305.46 57.91 306.62 57.40 C 306.52 68.81 305.57 81.12 310.92 91.60 C 313.61 90.46 315.61 88.20 316.21 85.30 C 320.02 71.45 319.67 56.91 320.18 42.66 C 322.03 43.27 325.68 43.19 324.97 46.09 C 324.32 58.60 322.81 71.17 319.28 83.22 C 317.97 86.87 316.52 91.06 313.03 93.18 C 310.72 94.39 308.34 92.51 307.31 90.49 C 303.61 83.86 303.51 76.03 302.84 68.66 C 301.16 74.96 299.07 81.24 295.73 86.87 C 293.97 89.59 291.61 92.77 288.02 92.77 C 284.32 92.40 284.14 87.77 283.80 84.93 C 283.72 73.53 286.54 62.31 286.74 50.92 C 286.62 48.46 286.71 44.95 283.81 44.03 C 279.29 42.62 274.97 46.20 272.92 49.95 C 269.86 55.55 269.08 63.43 273.56 68.49 C 274.96 70.26 277.31 69.82 279.21 69.38 C 279.95 66.74 281.81 61.59 277.64 61.20 C 276.60 62.90 276.51 64.93 276.06 66.82 C 273.23 64.09 276.80 58.50 280.27 60.85 C 282.30 63.38 281.79 67.35 279.75 69.72 C 277.08 72.03 272.78 70.95 271.23 67.87 C 267.13 59.98 269.42 48.98 276.84 43.84 Z" />
<path fill="#196157" d=" M 98.05 68.04 C 99.20 67.68 100.34 67.33 101.49 66.98 C 101.93 69.61 102.28 72.26 102.52 74.92 C 104.52 72.14 106.52 69.12 109.68 67.54 C 112.29 66.47 115.27 68.15 116.03 70.79 C 118.35 77.77 116.48 85.24 117.75 92.37 C 122.67 92.26 125.02 87.45 126.63 83.50 C 127.75 81.00 128.03 77.99 130.28 76.14 C 129.67 80.89 128.07 85.53 125.39 89.51 C 123.63 92.06 120.47 94.30 117.23 93.27 C 114.61 91.87 113.64 88.84 113.18 86.10 C 111.99 80.30 112.97 74.35 112.17 68.51 C 107.35 69.70 104.03 74.09 102.97 78.77 C 102.30 83.50 102.50 88.30 102.43 93.06 C 101.12 93.14 99.81 93.20 98.51 93.27 C 98.48 89.90 98.66 86.53 98.94 83.16 C 97.15 86.87 95.83 91.46 91.83 93.39 C 87.59 94.35 85.38 89.73 84.51 86.39 C 83.01 89.09 81.27 92.03 78.24 93.20 C 75.58 94.01 73.34 91.75 72.81 89.32 C 70.93 82.18 71.18 74.70 71.83 67.41 C 73.38 67.36 74.94 67.32 76.50 67.28 C 76.23 75.28 74.47 83.40 76.12 91.33 C 78.20 92.64 80.03 90.58 81.32 89.13 C 85.87 83.61 84.80 75.99 86.00 69.39 C 87.36 69.63 88.73 69.89 90.09 70.16 C 89.24 77.62 87.73 85.30 89.86 92.69 C 94.32 91.19 95.73 86.33 97.37 82.43 C 99.20 77.83 98.84 72.81 98.05 68.04 Z" />
<path fill="#196157" d=" M 332.11 68.12 C 334.95 66.76 339.05 66.10 341.36 68.76 C 342.73 70.19 342.58 72.27 342.72 74.08 C 341.61 72.26 340.90 70.20 339.60 68.51 C 336.57 66.81 333.54 69.43 332.17 72.00 C 329.36 77.07 327.77 83.07 328.56 88.87 C 328.68 90.82 330.89 92.56 332.57 90.93 C 337.53 87.16 338.55 80.47 340.41 74.90 C 341.72 75.04 343.05 75.18 344.37 75.33 C 343.19 79.81 341.89 84.38 342.26 89.07 C 342.21 90.32 342.75 91.25 343.91 91.87 C 347.10 90.70 348.30 87.23 349.49 84.37 C 351.69 79.24 350.39 73.58 349.87 68.25 C 351.21 68.09 352.56 67.93 353.91 67.78 C 355.24 75.32 353.95 83.12 355.89 90.57 C 357.64 89.52 359.62 88.52 360.50 86.55 C 363.27 81.16 364.22 75.09 364.98 69.15 C 365.87 69.08 367.65 68.94 368.55 68.88 C 368.18 75.62 367.54 82.36 367.23 89.11 C 369.87 86.78 372.52 84.36 374.31 81.28 C 375.46 79.49 376.04 77.16 378.21 76.29 C 376.53 82.46 371.95 87.18 367.05 91.03 C 366.42 98.28 367.07 106.05 363.76 112.75 C 361.58 116.96 354.86 114.74 354.10 110.55 C 352.16 102.97 357.98 96.69 363.14 92.03 C 363.92 89.51 363.49 86.64 363.84 83.99 C 362.16 87.74 359.78 92.00 355.01 91.77 C 352.93 89.53 351.80 86.70 351.29 83.72 C 349.72 87.31 348.47 92.30 344.15 93.36 C 340.40 93.40 338.88 89.53 337.91 86.58 C 336.34 89.09 334.77 91.97 331.82 93.04 C 328.64 94.06 325.04 91.84 324.19 88.68 C 321.87 81.14 324.99 71.90 332.11 68.12 Z" />
<path fill="#ffffff" d=" M 224.71 106.98 C 224.71 101.51 228.51 97.21 232.33 93.75 C 231.26 100.49 232.07 108.04 228.28 114.02 C 226.20 112.27 224.44 109.85 224.71 106.98 Z" />
<path fill="#ffffff" d=" M 356.07 109.71 C 354.39 103.37 358.83 97.66 363.33 93.75 C 362.65 100.50 362.35 107.39 360.05 113.84 C 358.33 112.89 356.38 111.88 356.07 109.71 Z" />
</svg>
